<svg width="74" height="55" viewBox="0 0 74 55" fill="none" xmlns="http://www.w3.org/2000/svg">
<g clip-path="url(#clip0_194_10418)">
<path d="M64.4164 42.265C67.8856 43.0607 71.2136 44.6943 73.3726 47.328C72.3354 44.9978 70.5225 42.975 68.5756 41.2526C65.6617 38.6746 62.3285 37.0162 58.6878 36.2896V32.2246C61.0947 32.497 62.9966 33.1534 64.247 33.6869C64.2084 23.7373 64.1697 13.7866 64.132 3.83702H58.6889V0.393204H58.0271V3.83806H52.4679V5.65233V32.4877C53.802 32.2215 55.7279 31.9779 58.0271 32.1616V36.1689C55.5784 35.7602 52.998 35.7654 50.3151 36.1926C47.7702 36.5982 45.3529 37.3578 43.0098 38.3145V34.8995C44.7371 34.3144 46.573 33.7282 48.5104 33.2204V10.0869H43.0098V7.45319H42.348V10.0869H36.8473V11.7144V37.1338C38.1386 36.6488 39.4487 36.1586 40.7786 35.6684C41.2899 35.4898 41.8147 35.3082 42.348 35.1255V38.591C32.0702 42.9678 23.1265 50.9019 10.8319 49.004C7.02504 48.4168 3.00071 46.8863 0.598033 44.0328C0.479886 44.0101 0.496615 44.1721 0.522753 44.2444C0.64822 44.6015 1.85792 46.1835 2.18309 46.5963C10.604 57.2911 22.9864 56.7111 34.6245 50.7935C43.7699 46.1433 53.1977 39.6932 64.4164 42.265Z" fill="#ED2344"/>
<path d="M55.1675 43.9296C50.1164 44.6881 44.8144 47.1175 40.4859 49.5623C39.1747 50.3033 37.8113 51.0598 36.7125 52.0577C41.7688 50.0257 46.9369 48.0102 52.378 46.9689C58.507 45.7955 68.6081 45.7212 73.2106 50.2672C73.4898 50.5427 73.6665 51.002 73.9989 51.1981C71.6883 43.9719 62.1968 42.8739 55.1665 43.9296H55.1675Z" fill="#ED2344"/>
<path d="M19.2402 47.972C24.1334 47.132 28.9325 44.8842 33.1314 42.4982C34.6653 41.6272 36.3538 40.6509 37.5719 39.4497C34.2199 40.9058 30.7643 42.3362 27.2136 43.4714V40.4146C29.105 39.7748 31.0498 39.0668 33.0457 38.3248V20.1242H27.2136V17.6453H26.5518V20.1242H21.3815V42.1835C23.0555 41.75 24.7796 41.2247 26.5518 40.6365V43.6799C21.6346 45.1938 16.5385 46.1113 11.2836 45.7233C7.02296 45.4085 3.11364 44.4363 0.287511 41.3991C0.170409 41.2732 -0.0313829 40.942 0.00312035 41.3764C3.2046 48.3611 11.9967 49.2177 19.2402 47.9741V47.972Z" fill="#ED2344"/>
<path d="M17.9322 41.4476V29.1554L6.64236 42.5963C6.82429 42.4962 7.0104 42.4002 7.20069 42.3073C10.7399 40.5828 14.6042 40.7098 17.9322 41.4476Z" fill="#ED2344"/>
<path d="M58.4391 3.88655C59.5264 3.88655 60.4078 3.01652 60.4078 1.94328C60.4078 0.870035 59.5264 0 58.4391 0C57.3517 0 56.4703 0.870035 56.4703 1.94328C56.4703 3.01652 57.3517 3.88655 58.4391 3.88655Z" fill="#ED2344"/>
<path d="M42.692 10.2716C43.7793 10.2716 44.6608 9.40157 44.6608 8.32833C44.6608 7.25509 43.7793 6.38506 42.692 6.38506C41.6047 6.38506 40.7232 7.25509 40.7232 8.32833C40.7232 9.40157 41.6047 10.2716 42.692 10.2716Z" fill="#ED2344"/>
<path d="M26.7609 20.3151C27.8482 20.3151 28.7297 19.4451 28.7297 18.3719C28.7297 17.2986 27.8482 16.4286 26.7609 16.4286C25.6736 16.4286 24.7921 17.2986 24.7921 18.3719C24.7921 19.4451 25.6736 20.3151 26.7609 20.3151Z" fill="#ED2344"/>
</g>
<defs>
<clipPath id="clip0_194_10418">
<rect width="74" height="55" fill="white"/>
</clipPath>
</defs>
</svg>
